<?xml version="1.0" standalone="no"?><!DOCTYPE svg PUBLIC "-//W3C//DTD SVG 1.1//EN" "http://www.w3.org/Graphics/SVG/1.1/DTD/svg11.dtd"><svg t="1582454596423" class="icon" viewBox="0 0 1024 1024" version="1.1" xmlns="http://www.w3.org/2000/svg" p-id="4301" xmlns:xlink="http://www.w3.org/1999/xlink" width="80" height="80"><defs><style type="text/css"></style></defs><path d="M943.04936458 348.16836303c18.08519542 50.2473884 28.1373996 102.5074703 28.13739962 158.78049174 0 253.25496985-205.00901367 458.26457611-458.2645761 458.2645761-253.24904292 0-458.2580566-205.00901367-458.25805661-458.26457611 0-253.24963552 205.00960627-458.25864919 458.25805661-458.25864918 132.65696981 0 251.24227636 56.27479923 335.65862432 146.72211357 8.03891813 0 14.07166327-2.01269249 20.09788889-8.03891812 0 0 8.03951071-8.03951071 8.03951073-24.11675538-90.4425736-98.48801123-221.08744252-158.78701027-363.79602394-158.78701025-277.36639087 0-502.47921938 225.11282851-502.47921939 502.47921937 0 277.37291038 225.11282851 502.4851463 502.47921939 502.4851463 277.37291038 0 502.4851463-225.11223592 502.4851463-502.4851463 0-62.30576658-12.05896977-120.5926657-32.16219302-174.85951416-10.04627729-6.03215255-28.13621442-8.03891813-40.19577678 16.07902242z m2e-8 0" fill="#272636" p-id="4302"></path><path d="M545.08497369 382.3373226l-10.05220421 12.05778458c62.30635917 64.31964427 140.69648152 108.53488111 237.17120669 132.65756242-10.05161162 14.06514375-20.09788889 28.13680702-28.13680703 42.20787767-40.20111113-14.07107067-76.37742886-30.14890692-112.55908191-52.26008089v30.14949951H384.29119686v-30.14949951c-36.18224465 22.11117398-74.37007069 42.20847029-116.57854097 60.29959161-8.03891813-14.07166327-18.08519542-26.13063305-26.13004045-36.18224464 100.49892595-40.1945916 184.91586652-92.45467351 251.24286896-158.78049075h52.25948929zM346.10277823 257.7198635h46.22733675c-8.03891813 18.09052973-18.09052973 34.16955217-26.13004046 50.24679581H518.95493225v36.18283725H344.09008475c-22.11176658 34.16836598-48.23528851 64.31845908-72.35856239 88.43521443-8.03951071-10.05161162-16.07902242-20.09848148-26.13004046-32.162193 38.18960381-38.1824917 74.37125587-86.42311355 100.50129633-142.70265449z m-80.39807409 460.27015649h311.53653563c30.14949952-50.2473884 56.27954095-98.48149171 76.37742885-146.72211356l40.20111113 22.1105814c-24.12327487 42.20787769-48.24062185 84.41634798-72.3579698 124.61212477h130.64427732v38.18901122H265.70470414v-38.18960383z m52.25534016-118.58589914l34.16777437-18.0851954c22.11176658 34.16895956 40.20229631 70.3452773 58.29282607 106.52692838l-36.18165207 20.09788889c-16.07842983-38.18841862-34.16895956-74.37007069-56.27894837-108.53962187z m82.40898881-164.81264329c-14.07166327-20.09788889-30.14890692-38.18901121-44.22057019-56.27420662l28.14273394-20.10381581c16.07783723 16.08494836 32.15626608 32.16278558 48.23528752 52.26008189l-32.15745127 24.11794054z m108.53428852-12.05837817c-34.16895956 32.16160042-72.35915498 62.31169252-116.57379923 88.43521444h227.11959505c-40.1951842-24.11616277-76.37742886-54.26625487-110.54579582-88.43521444z m-40.19637038 150.74749955l36.17631871-10.05220322c14.07166327 38.18901121 26.12944786 78.39012233 36.18165206 116.57854l-40.2011121 12.05897075c-8.03832552-42.20847029-18.09052973-82.4095814-32.15685867-118.58530753z m108.53428852-315.56073544h44.22057018c-8.03891813 18.09052973-16.08435577 34.16955217-24.1226813 50.24679581h168.83862187v36.18283725H575.2344732c-10.0522042 14.06395856-18.09052973 28.13680702-26.13063303 38.18841862-14.07107067-8.03891813-26.13004045-14.07166327-38.18782604-18.09052971 28.13621442-30.15068569 48.23410331-66.32700342 66.32522564-106.52752197z m86.42904046 182.90435822c-16.07842983-18.09112233-36.18224465-38.18960381-60.29900002-58.28689912l26.13004046-24.12386747c24.11734795 20.10381483 44.21523683 38.18960381 62.30635916 56.28013353l-28.1373996 26.13063306z m0 0M880.73767108 257.7198635c0 10.52337333 4.33594252 20.98214606 11.77686171 28.42424944 7.44210436 7.44151177 17.90146969 11.77686169 28.42424944 11.77686168 10.52455852 0 20.98392383-4.33534992 28.424843-11.77686168 7.44151177-7.44210436 11.77093477-17.90087708 11.77093477-28.42424944 0-10.52396592-4.33001558-20.98333125-11.77093477-28.42425042-7.44091819-7.44210436-17.90028352-11.77093477-28.424843-11.77093477-10.52278073 0-20.98214606 4.3288304-28.42424944 11.77093477-7.44091819 7.44091819-11.77686169 17.90028352-11.77686169 28.42425042z m2e-8 0" fill="#272636" p-id="4303"></path></svg>